<svg xmlns="http://www.w3.org/2000/svg" width="17" height="17" viewBox="0 0 17 17" fill="none">
<path d="M16.3086 13.7701L10.8855 8.34695L16.3086 2.92382C16.8509 2.3815 16.8509 1.51936 16.3086 0.977048C15.7663 0.434734 14.9041 0.434734 14.3618 0.977048L7.97921 7.35966C7.4369 7.90198 7.4369 8.77802 7.97921 9.32033L14.3618 15.7169C14.9041 16.2592 15.7663 16.2592 16.3086 15.7169C16.8509 15.1745 16.8509 14.3124 16.3086 13.7701Z" fill="#888888"/>
<path d="M9.16577 13.7701L3.74263 8.34695L9.16577 2.92382C9.70809 2.3815 9.70809 1.51936 9.16577 0.977048C8.62346 0.434734 7.76132 0.434734 7.21901 0.977048L0.836388 7.35966C0.294074 7.90198 0.294074 8.77802 0.836388 9.32033L7.21901 15.7169C7.76132 16.2592 8.62346 16.2592 9.16577 15.7169C9.70809 15.1745 9.70809 14.3124 9.16577 13.7701Z" fill="#888888"/>
</svg>