<svg xmlns="http://www.w3.org/2000/svg" width="24" height="24" viewBox="0 0 24 24" fill="none">
  <g clip-path="url(#clip0_2432_17795)">
    <path d="M18.0429 4.54289C18.4334 4.15237 19.0664 4.15237 19.457 4.54289C19.8475 4.93342 19.8475 5.56643 19.457 5.95696L5.95696 19.457C5.56643 19.8475 4.93342 19.8475 4.54289 19.457C4.15237 19.0664 4.15237 18.4334 4.54289 18.0429L18.0429 4.54289Z" fill="#7B7B82"/>
    <path d="M4.54289 4.54289C4.93342 4.15237 5.56643 4.15237 5.95696 4.54289L19.457 18.0429C19.8475 18.4334 19.8475 19.0664 19.457 19.457C19.0664 19.8475 18.4334 19.8475 18.0429 19.457L4.54289 5.95696C4.15237 5.56643 4.15237 4.93342 4.54289 4.54289Z" fill="#7B7B82"/>
  </g>
  <defs>
    <clipPath id="clip0_2432_17795">
      <rect width="24" height="24" fill="white"/>
    </clipPath>
  </defs>
</svg>